# xmcd
#
# Track frame offsets: 
#        150
#        18631
#        36536
#        50702
#        73942
#        88382
#        100994
#        123559
#        144690
#        160523
#        176811
#
# Disc length: 2519 seconds
#
# Revision: 0
# Processed by: cddbd v1.4PL0 Copyright (c) Steve Scherf et al.
# Submitted via: ExactAudioCopy v0.90b4
#
DISCID=aa09d50b
DTITLE=Kai Degenhardt - Briefe aus der Ebene
DYEAR=2002
DGENRE=Folk
TTITLE0=Dora 2
TTITLE1=Tag im Mai
TTITLE2=Desertieren
TTITLE3=Southern Comfort (Euer Eigentum)
TTITLE4=Aus der Ebene
TTITLE5=Bevor wir verteilen
TTITLE6=Das grosse Spiel
TTITLE7=Claqueur
TTITLE8=Letter to Lenin
TTITLE9=Ay Carmela
TTITLE10=Gemeinsame Reise
EXTD=
EXTT0=
EXTT1=
EXTT2=
EXTT3=
EXTT4=
EXTT5=
EXTT6=
EXTT7=
EXTT8=
EXTT9=
EXTT10=
PLAYORDER=
